<svg xmlns="http://www.w3.org/2000/svg" viewBox="0 0 960 540" role="img" aria-labelledby="title desc">
  <title id="title">Employee attrition prediction abstract project thumbnail</title>
  <desc id="desc">Dark analytics chart with prediction curve and data bars.</desc>
  <defs>
    <radialGradient id="accent" cx="72%" cy="30%" r="65%">
      <stop offset="0%" stop-color="hsl(250, 65%, 65%)" stop-opacity="0.28"/>
      <stop offset="100%" stop-color="hsl(222, 47%, 4%)" stop-opacity="0"/>
    </radialGradient>
  </defs>
  <rect width="960" height="540" fill="hsl(222, 47%, 4%)"/>
  <rect width="960" height="540" fill="url(#accent)"/>
  <g transform="translate(130 86)">
    <path d="M0 350H700M0 0V350" stroke="hsl(217, 33%, 20%)" stroke-width="4" stroke-linecap="round"/>
    <g fill="hsl(250, 65%, 65%)" opacity="0.78">
      <rect x="64" y="220" width="54" height="130" rx="8"/>
      <rect x="154" y="164" width="54" height="186" rx="8"/>
      <rect x="244" y="250" width="54" height="100" rx="8"/>
      <rect x="334" y="114" width="54" height="236" rx="8"/>
      <rect x="424" y="184" width="54" height="166" rx="8"/>
      <rect x="514" y="86" width="54" height="264" rx="8"/>
    </g>
    <g fill="hsl(213, 31%, 91%)" opacity="0.22">
      <rect x="64" y="190" width="54" height="30" rx="8"/>
      <rect x="154" y="126" width="54" height="38" rx="8"/>
      <rect x="244" y="210" width="54" height="40" rx="8"/>
      <rect x="334" y="74" width="54" height="40" rx="8"/>
      <rect x="424" y="146" width="54" height="38" rx="8"/>
      <rect x="514" y="42" width="54" height="44" rx="8"/>
    </g>
    <path d="M70 272C156 176 224 204 300 176C380 146 458 122 570 70" fill="none" stroke="hsl(213, 31%, 91%)" stroke-width="6" stroke-linecap="round"/>
    <path d="M70 272C156 176 224 204 300 176C380 146 458 122 570 70" fill="none" stroke="hsl(250, 65%, 65%)" stroke-opacity="0.45" stroke-width="18" stroke-linecap="round"/>
    <circle cx="570" cy="70" r="20" fill="hsl(222, 47%, 8%)" stroke="hsl(213, 31%, 91%)" stroke-width="5"/>
  </g>
  <g fill="hsl(213, 31%, 91%)" opacity="0.7">
    <circle cx="812" cy="114" r="3"/>
    <circle cx="872" cy="240" r="2"/>
    <circle cx="88" cy="420" r="2"/>
  </g>
</svg>
